# xmcd
#
# Track frame offsets: 
#        150
#        21354
#        37244
#        65362
#        88644
#        111009
#        134137
#        151849
#        173067
#        197462
#        222075
#        241210
#        262390
#
# Disc length: 3856 seconds
#
# Revision: 0
# Processed by: cddbd v1.5.2PL0 Copyright (c) Steve Scherf et al.
# Submitted via: ExactAudioCopy v0.95a5
#
DISCID=ba0f0e0d
DTITLE=Dana Gillespie - I Rest My Case
DYEAR=2010
DGENRE=Blues
TTITLE0=Funk Me, It's Hot
TTITLE1=It's Gonna Be A Long Night
TTITLE2=Twenty Four Seven
TTITLE3=When Cries Become Sighs
TTITLE4=Your Love Is True
TTITLE5=Strange Are The Ways Of Love
TTITLE6=Game Over
TTITLE7=The House Of Blues
TTITLE8=Guilty As Hell
TTITLE9=I Rest My Case
TTITLE10=Wall-To-Wall Love
TTITLE11=Unify
TTITLE12=Could've, Should've, Would've
EXTD=
EXTT0=
EXTT1=
EXTT2=
EXTT3=
EXTT4=
EXTT5=
EXTT6=
EXTT7=
EXTT8=
EXTT9=
EXTT10=
EXTT11=
EXTT12=
PLAYORDER=
